<?xml version="1.0" encoding="UTF-8" standalone="no"?>
<!-- Created with Inkscape (http://www.inkscape.org/) -->

<svg
   version="1.1"
   id="svg371"
   width="294.72"
   height="120.96"
   viewBox="0 0 294.72 120.96"
   sodipodi:docname="logo_amazer_sweet.svg"
   inkscape:version="1.1.1 (3bf5ae0d25, 2021-09-20)"
   xmlns:inkscape="http://www.inkscape.org/namespaces/inkscape"
   xmlns:sodipodi="http://sodipodi.sourceforge.net/DTD/sodipodi-0.dtd"
   xmlns="http://www.w3.org/2000/svg"
   xmlns:svg="http://www.w3.org/2000/svg">
  <defs
     id="defs375" />
  <sodipodi:namedview
     id="namedview373"
     pagecolor="#ffffff"
     bordercolor="#666666"
     borderopacity="1.0"
     inkscape:pageshadow="2"
     inkscape:pageopacity="0.0"
     inkscape:pagecheckerboard="0"
     showgrid="false"
     inkscape:zoom="3.5597276"
     inkscape:cx="113.21091"
     inkscape:cy="56.464994"
     inkscape:window-width="1920"
     inkscape:window-height="996"
     inkscape:window-x="0"
     inkscape:window-y="0"
     inkscape:window-maximized="1"
     inkscape:current-layer="g377" />
  <g
     inkscape:groupmode="layer"
     inkscape:label="Image"
     id="g377">
    <path
       style="fill:#010101;stroke:#000000;stroke-width:1;stroke-opacity:1;stroke-miterlimit:4;stroke-dasharray:none;paint-order:stroke fill markers;fill-opacity:1"
       d="m 142.72001,0 -1.28,28.479999 h 7.68 c 0,-5.265056 0.32,-10.428992 0.32,-15.679999 0,-1.635392 0.57568,-4.608768 -0.16,-6.08 -1.0416,-2.082944 -4.57504,-5.5708384 -6.56,-6.72 m 1.92,4.16 3.04,3.52 0.16,5.44 -0.32,13.759999 h -4.48 l 0.96,-15.679999 0.64,-7.04 M 52.48,10.88 l 7.78656,12.799999 3.46688,4.64 7.62656,0.16 h 20.160009 l -4.693445,-6.08 L 78.34656,10.88 74.24,5.173344 68.8,6.453344 52.48,10.88 M 88.000009,26.879999 H 71.04 l -6.29344,-0.16 -2.98656,-4 L 55.04,11.84 68.16,8.373344 l 5.12,-1.28 3.84,5.066656 10.880009,14.719999 m 128.960001,1.6 h 10.88 l 4.05344,-0.16 4.69312,-5.92 L 247.04001,7.36 l -11.2,3.093344 -6.02656,1.866656 -4,5.279999 -8.85344,10.88 m 25.92,-18.239999 -8.53344,12.159999 -3.62656,4.32 -9.92,0.16 c 0.8752,-2.217504 3.2352,-4.203648 4.74656,-6.08 1.70432,-2.115616 3.21568,-5.194815 5.28,-6.933343 2.40768,-2.027489 8.96128,-3.057024 12.05344,-3.626656 M 19.52,37.439999 14.773344,48.32 4.426656,71.999999 0,82.879999 l 0.95999998,0.32 c 2.68796802,-4.256 3.33209602,-10.52704 6.50665602,-14.4 1.068096,-1.30304 4.120256,-0.96 5.653344,-0.96 H 27.2 c 1.368672,0 3.997824,-0.50336 5.12,0.37344 1.11264,0.86912 1.41472,2.56768 1.97344,3.78656 1.66912,3.64192 2.93344,7.82272 5.06656,11.2 H 40 c 1.02592,-2.43648 -2.3952,-7.582079 -3.46656,-9.92 -3.97856,-8.680319 -7.743808,-17.46912 -11.520096,-26.24 -0.963968,-2.23904 -2.870784,-9.52928 -5.493344,-9.6 m 37.76,0 c -1.57888,2.2224 -0.64,7.20864 -0.64,9.920001 0,8.34624 -0.32,16.65024 -0.32,24.96 v 8.319999 c 0,0.686401 -0.24064,2.418241 0.96,2.186561 0.95168,-0.183681 0.64,-1.826561 0.64,-2.50656 V 72.96 41.6 h 0.32 c 3.89856,10.582079 9.2976,21.26176 14.34656,31.36 1.21216,2.423999 2.79616,9.11808 5.49344,9.919999 C 83.897924,73.668159 87.447044,62.3472 92.106569,52.48 c 1.31008,-2.774081 2.4944,-8.38656 4.85344,-10.24 v 28.479999 c 0,3.48448 -1.0144,8.990721 0.32,12.16 h 0.64 l 0.32,-10.559999 v -24 -7.68 l -0.64,-2.50656 -1.81344,2.18656 -3.25312,7.36 L 82.18656,70.719999 78.08,80.32 C 75.85408,78.687679 74.73312,73.872639 73.54656,71.359999 69.68672,63.1856 66.176,54.805119 62.13344,46.719999 60.83808,44.1296 59.74528,38.98976 57.28,37.439999 m 73.28001,0 -4.74656,10.880001 -10.34688,23.679999 -4.42656,10.88 0.96,0.32 c 2.688,-4.256 3.33216,-10.52704 6.50656,-14.4 1.06816,-1.30304 4.12032,-0.96 5.65344,-0.96 h 14.08 c 1.36864,0 3.99776,-0.50336 5.12,0.37344 1.11264,0.86912 1.41472,2.56768 1.97344,3.78656 1.66912,3.64192 2.93344,7.82272 5.06656,11.2 h 0.64 c 1.02592,-2.43648 -2.3952,-7.582079 -3.46656,-9.92 -3.97856,-8.680319 -7.74368,-17.46912 -11.52,-26.24 -0.96416,-2.23904 -2.87104,-9.52928 -5.49344,-9.6 m 34.88,1.6 V 39.68 l 8,0.32 h 15.68 l 8,0.32 c -8.16352,10.007039 -16.41184,19.95584 -24.42656,30.079999 -2.40544,3.03808 -7.7392,7.42656 -8.53344,11.200001 2.33216,0.982079 6.0768,0.319999 8.64,0.319999 h 19.84 c 1.9072,0 8.07648,0.972801 8.32,-1.28 l -34.24,-0.319999 23.78656,-29.44 6.72,-8.32 2.13344,-3.840001 h -23.68 l -10.24,0.32 m 81.28,41.6 -28.48,-0.319999 V 60.16 h 18.24 l 8.32,-0.32 V 59.2 l -4.8,-0.32 -21.76,-0.32 V 40 h 18.88 l 8.64,-0.32 v -0.640001 c -1.8736,-0.7888 -4.66048,-0.32 -6.72,-0.32 h -15.04 c -1.28704,0 -6.10432,-0.704 -6.88,0.373441 -0.79744,1.10752 -0.48,5.258559 -0.48,6.666559 v 16.96 13.76 c 0,1.21472 -0.53344,4.15968 0.37344,5.06656 1.01056,1.010881 4.65376,0.37344 6.02656,0.37344 h 17.28 c 1.73536,0 6.16768,0.869121 6.4,-1.28 m 14.72,2.24 0.32,-20.8 h 12.8 l 5.12,0.160001 4.21344,6.239999 8.90656,14.4 h 0.64 c 0.73024,-1.85024 -1.63904,-4.5056 -2.66656,-6.08 -2.75456,-4.21952 -7.58112,-9.885439 -8.85344,-14.72 10.12896,0 14.52928,-13.310719 7.68,-20.159999 -5.02464,-5.02464 -14.68224,-3.200001 -21.12,-3.200001 -2.14144,0 -5.32928,-0.603839 -7.36,0.05344 -1.91904,0.6208 -0.96,7.75488 -0.96,9.54656 v 26.559999 c 0,1.878721 -0.95872,7.758081 1.28,8 M 20.16,39.999999 l 3.573344,7.68 L 32,66.559998 H 8.64 L 11.146656,60.16 17.226656,46.399999 20.16,40 m 111.04001,0 3.57344,7.68 8.26656,18.879999 h -23.36 L 122.18657,60.16 128.26657,46.399999 131.20001,40 m 130.56,20.8 V 40 h 15.04 c 3.20544,0 6.696,-0.19936 9.6,1.33344 6.66208,3.51584 6.93792,14.311359 0.32,18.08 -2.84736,1.62144 -6.13408,1.38656 -9.28,1.38656 h -15.68 M 38.4,117.12 c 2.51328,-0.0662 7.81728,-0.63488 9.92,-2.02656 4.09984,-2.71424 7.08288,-8.52736 10.56,-12.05344 3.07424,-3.117437 8.10688,-6.87552 10.24,-10.560001 H 55.68 c -1.28768,0 -3.95136,-0.50912 -5.06656,0.16 -1.58816,0.95296 -2.75136,4.045121 -3.68,5.600002 C 43.81984,103.45312 38.88992,110.91424 38.4,117.12 m 96.32001,-24.640001 -0.58656,12.160001 2.82656,3.2 8.96,9.28 0.32,-8 0.32,-16.640001 h -11.84 m 68.48,0 c 1.73632,2.762241 5.53696,5.136322 8,7.360004 4.60992,4.161597 8.96832,8.841277 13.12,13.439997 1.56032,1.72864 4.74464,7.18048 7.04,7.62656 1.60064,0.31136 5.224,-2.08768 6.72,-2.77312 4.90976,-2.25056 10.74688,-5.66752 16,-6.77344 -0.79456,-2.74432 -5.6048,-5.9248 -7.68,-8 -3.25248,-3.25248 -7.40896,-8.664321 -11.52,-10.720001 -2.08416,-1.04224 -6.62496,-0.16 -8.96,-0.16 h -22.72 m -138.56001,1.6 c -1.72928,2.9872 -5.03264,5.422084 -7.36,8.000001 -4.86976,5.39424 -8.3888,12.59136 -16.32,12.8 0.97792,-5.30944 4.5264,-10.79424 7.25344,-15.359997 0.88544,-1.482882 1.93728,-4.313924 3.41312,-5.280004 0.82048,-0.53696 2.77728,-0.16 3.73344,-0.16 h 9.28 m 80.32001,0 -0.32,19.200001 h -0.32 l -8.16,-8.96 0.16,-10.240001 h 8.64 M 251.20001,110.4 c -0.96192,1.00544 -2.84192,1.36928 -4.16,1.97344 -3.58048,1.64096 -7.2016,3.31616 -10.88,4.74656 -1.01792,0.39584 -3.42912,2.0416 -4.48,1.70656 -2.0416,-0.65088 -4.624,-5.21376 -6.08,-6.82656 -5.41696,-6.00032 -11.31616,-12.907837 -17.92,-17.600001 1.89408,-1.3776 8.07712,-0.32 10.56,-0.32 h 11.2 c 1.24512,0 3.35136,-0.40448 4.48,0.16 2.16128,1.080641 4.03264,3.624642 5.76,5.280004 3.72256,3.567357 7.3792,7.804157 11.52,10.879997 z"
       id="path2298"
       inkscape:export-filename="/mnt/DataLinux/Documents/cv/new/path2298.png"
       inkscape:export-xdpi="325.70001"
       inkscape:export-ydpi="325.70001" />
  </g>
</svg>
