<?xml version="1.0" encoding="UTF-8" standalone="no"?>
<svg
   height="48"
   width="48"
   version="1.1"
   id="svg4"
   sodipodi:docname="question_mark.svg"
   inkscape:version="1.1.2 (0a00cf5339, 2022-02-04)"
   xmlns:inkscape="http://www.inkscape.org/namespaces/inkscape"
   xmlns:sodipodi="http://sodipodi.sourceforge.net/DTD/sodipodi-0.dtd"
   xmlns="http://www.w3.org/2000/svg"
   xmlns:svg="http://www.w3.org/2000/svg">
  <defs
     id="defs8" />
  <sodipodi:namedview
     id="namedview6"
     pagecolor="#505050"
     bordercolor="#eeeeee"
     borderopacity="1"
     inkscape:pageshadow="0"
     inkscape:pageopacity="0"
     inkscape:pagecheckerboard="0"
     showgrid="false"
     inkscape:zoom="13.416667"
     inkscape:cx="24"
     inkscape:cy="23.962733"
     inkscape:window-width="1920"
     inkscape:window-height="1000"
     inkscape:window-x="0"
     inkscape:window-y="0"
     inkscape:window-maximized="1"
     inkscape:current-layer="svg4" />
  <path
     d="m 24.2,35.65 c 0.533333,0 0.983333,-0.183333 1.35,-0.55 0.366667,-0.366667 0.55,-0.816667 0.55,-1.35 0,-0.533333 -0.183333,-0.983333 -0.55,-1.35 -0.366667,-0.366667 -0.816667,-0.55 -1.35,-0.55 -0.533333,0 -0.983333,0.183333 -1.35,0.55 -0.366667,0.366667 -0.55,0.816667 -0.55,1.35 0,0.533333 0.183333,0.983333 0.55,1.35 0.366667,0.366667 0.816667,0.55 1.35,0.55 z m -1.75,-7.3 h 2.95 c 0,-0.866667 0.108333,-1.658333 0.325,-2.375 0.216667,-0.716667 0.891667,-1.541667 2.025,-2.475 1.033333,-0.866667 1.766667,-1.716667 2.2,-2.55 0.433333,-0.833333 0.65,-1.75 0.65,-2.75 0,-1.766667 -0.575,-3.183333 -1.725,-4.25 -1.15,-1.066667 -2.675,-1.6 -4.575,-1.6 -1.633333,0 -3.075,0.408333 -4.325,1.225 -1.25,0.816667 -2.158333,1.941667 -2.725,3.375 l 2.65,1 c 0.366667,-0.933333 0.916667,-1.658333 1.65,-2.175 0.733333,-0.516667 1.6,-0.775 2.6,-0.775 1.133333,0 2.05,0.308333 2.75,0.925 0.7,0.616667 1.05,1.408333 1.05,2.375 0,0.733333 -0.216667,1.425 -0.65,2.075 -0.433333,0.65 -1.066667,1.325 -1.9,2.025 -1,0.866667 -1.741667,1.725 -2.225,2.575 -0.483333,0.85 -0.725,1.975 -0.725,3.375 z"
     id="path2"
     sodipodi:nodetypes="sssssssssccscsssssccssssscsc" />
</svg>
