<?xml version="1.0" encoding="UTF-8" standalone="no"?>
<svg
   enable-background="new 0 0 24 24"
   height="24px"
   viewBox="0 0 24 24"
   width="24px"
   fill="#000000"
   version="1.1"
   id="svg10"
   sodipodi:docname="question_mark_black_24dp.svg"
   inkscape:version="1.1.2 (0a00cf5339, 2022-02-04)"
   xmlns:inkscape="http://www.inkscape.org/namespaces/inkscape"
   xmlns:sodipodi="http://sodipodi.sourceforge.net/DTD/sodipodi-0.dtd"
   xmlns="http://www.w3.org/2000/svg"
   xmlns:svg="http://www.w3.org/2000/svg">
  <defs
     id="defs14" />
  <sodipodi:namedview
     id="namedview12"
     pagecolor="#505050"
     bordercolor="#eeeeee"
     borderopacity="1"
     inkscape:pageshadow="0"
     inkscape:pageopacity="0"
     inkscape:pagecheckerboard="0"
     showgrid="false"
     inkscape:zoom="26.833333"
     inkscape:cx="12"
     inkscape:cy="11.981366"
     inkscape:window-width="1920"
     inkscape:window-height="1000"
     inkscape:window-x="0"
     inkscape:window-y="0"
     inkscape:window-maximized="1"
     inkscape:current-layer="svg10" />
  <g
     id="g4">
    <rect
       fill="none"
       height="24"
       width="24"
       id="rect2" />
  </g>
  <g
     id="g8"
     transform="matrix(0.53696718,0,0,0.53696718,5.5557415,5.2879102)">
    <path
       d="m 11.07,12.85 c 0.77,-1.39 2.25,-2.21 3.11,-3.44 0.91,-1.29 0.4,-3.7 -2.18,-3.7 -1.69,0 -2.52,1.28 -2.87,2.34 L 6.54,6.96 C 7.25,4.83 9.18,3 11.99,3 c 2.35,0 3.96,1.07 4.78,2.41 0.7,1.15 1.11,3.3 0.03,4.9 -1.2,1.77 -2.35,2.31 -2.97,3.45 -0.25,0.46 -0.35,0.76 -0.35,2.24 h -2.89 c -0.01,-0.78 -0.13,-2.05 0.48,-3.15 z M 14,20 c 0,1.1 -0.9,2 -2,2 -1.1,0 -2,-0.9 -2,-2 0,-1.1 0.9,-2 2,-2 1.1,0 2,0.9 2,2 z"
       id="path6" />
  </g>
</svg>
