<?xml version="1.0" encoding="UTF-8" standalone="no"?>
<svg
   height="24px"
   viewBox="0 0 24 24"
   width="24px"
   fill="#000000"
   version="1.1"
   id="svg6"
   sodipodi:docname="search_123.svg"
   inkscape:version="1.1.2 (0a00cf5339, 2022-02-04)"
   xmlns:inkscape="http://www.inkscape.org/namespaces/inkscape"
   xmlns:sodipodi="http://sodipodi.sourceforge.net/DTD/sodipodi-0.dtd"
   xmlns="http://www.w3.org/2000/svg"
   xmlns:svg="http://www.w3.org/2000/svg">
  <defs
     id="defs10" />
  <sodipodi:namedview
     id="namedview8"
     pagecolor="#505050"
     bordercolor="#eeeeee"
     borderopacity="1"
     inkscape:pageshadow="0"
     inkscape:pageopacity="0"
     inkscape:pagecheckerboard="0"
     showgrid="false"
     inkscape:zoom="41.836875"
     inkscape:cx="6.6448558"
     inkscape:cy="7.923632"
     inkscape:window-width="1920"
     inkscape:window-height="1000"
     inkscape:window-x="0"
     inkscape:window-y="0"
     inkscape:window-maximized="1"
     inkscape:current-layer="svg6" />
  <path
     d="M0 0h24v24H0V0z"
     fill="none"
     id="path2" />
  <path
     d="M 16.948065,14.971474 H 15.90706 l -0.368963,-0.355786 c 1.291373,-1.502209 2.068832,-3.452444 2.068832,-5.5739849 0,-4.7306401 -3.834586,-8.56522568 -8.5652262,-8.56522568 -4.7306401,0 -8.5652257,3.83458558 -8.5652257,8.56522568 0,4.7306399 3.8345856,8.5652259 8.5652257,8.5652259 2.1215412,0 4.0717762,-0.777459 5.5739852,-2.068832 l 0.355786,0.368963 v 1.041005 l 6.588635,6.575458 1.963414,-1.963414 z m -7.9063622,0 c -3.2811403,0 -5.9297717,-2.648631 -5.9297717,-5.9297709 0,-3.2811403 2.6486314,-5.9297717 5.9297717,-5.9297717 3.2811402,0 5.9297712,2.6486314 5.9297712,5.9297717 0,3.2811399 -2.648631,5.9297709 -5.9297712,5.9297709 z"
     id="path4"
     style="stroke-width:1.31773" />
  <g
     id="g8"
     transform="matrix(0.69947245,0,0,0.69947245,0.82092635,0.57361298)">
    <path
       d="M 7,15 H 5.5 V 10.5 H 4 V 9 h 3 z m 6.5,-1.5 h -3 v -1 h 2 c 0.55,0 1,-0.45 1,-1 V 10 c 0,-0.55 -0.45,-1 -1,-1 H 9 v 1.5 h 3 v 1 h -2 c -0.55,0 -1,0.45 -1,1 V 15 h 4.5 z m 6,0.5 v -4 c 0,-0.55 -0.45,-1 -1,-1 H 15 v 1.5 h 3 v 1 h -2 v 1 h 2 v 1 H 15 V 15 h 3.5 c 0.55,0 1,-0.45 1,-1 z"
       id="path6" />
  </g>
</svg>
