<?xml version="1.0" encoding="UTF-8" standalone="no"?>
<svg
   height="24px"
   viewBox="0 0 24 24"
   width="24px"
   fill="#000000"
   version="1.1"
   id="svg6"
   sodipodi:docname="search_dialpad.svg"
   inkscape:version="1.1.2 (0a00cf5339, 2022-02-04)"
   xmlns:inkscape="http://www.inkscape.org/namespaces/inkscape"
   xmlns:sodipodi="http://sodipodi.sourceforge.net/DTD/sodipodi-0.dtd"
   xmlns="http://www.w3.org/2000/svg"
   xmlns:svg="http://www.w3.org/2000/svg">
  <defs
     id="defs10" />
  <sodipodi:namedview
     id="namedview8"
     pagecolor="#505050"
     bordercolor="#eeeeee"
     borderopacity="1"
     inkscape:pageshadow="0"
     inkscape:pageopacity="0"
     inkscape:pagecheckerboard="0"
     showgrid="false"
     inkscape:zoom="7.5192108"
     inkscape:cx="-27.130507"
     inkscape:cy="-14.562699"
     inkscape:window-width="1920"
     inkscape:window-height="1000"
     inkscape:window-x="0"
     inkscape:window-y="0"
     inkscape:window-maximized="1"
     inkscape:current-layer="svg6" />
  <path
     d="M0 0h24v24H0V0z"
     fill="none"
     id="path2" />
  <path
     d="m 16.328489,14.599398 h -0.910655 l -0.322763,-0.311237 c 1.129672,-1.314107 1.809781,-3.020142 1.809781,-4.8760327 0,-4.1382882 -3.354435,-7.4927225 -7.4927233,-7.4927225 -4.138288,0 -7.4927225,3.3544343 -7.4927225,7.4927225 0,4.1382877 3.3544345,7.4927237 7.4927225,7.4927237 1.8558903,0 3.5619263,-0.68011 4.8760343,-1.809781 l 0.311236,0.322762 v 0.910654 l 5.763632,5.752107 1.717563,-1.717563 z m -6.9163603,0 c -2.870289,0 -5.187269,-2.316981 -5.187269,-5.1872697 0,-2.870289 2.31698,-5.1872694 5.187269,-5.1872694 2.8702903,0 5.1872703,2.3169804 5.1872703,5.1872694 0,2.8702887 -2.31698,5.1872697 -5.1872703,5.1872697 z"
     id="path4"
     style="stroke-width:1.15273" />
  <path
     d="M 5.1579766,5.1261278 H 13.577621 V 13.545772 H 5.1579766 Z"
     fill="none"
     id="path2-7"
     style="stroke-width:0.350819" />
  <path
     d="m 9.4061188,12.149964 c -0.3859004,0 -0.701637,0.315736 -0.701637,0.701637 0,0.3859 0.3157366,0.701637 0.701637,0.701637 0.3859003,0 0.7016372,-0.315737 0.7016372,-0.701637 0,-0.385901 -0.3157369,-0.701637 -0.7016372,-0.701637 z M 7.3012078,5.8352301 c -0.3859004,0 -0.701637,0.3157367 -0.701637,0.7016369 0,0.3859004 0.3157366,0.701637 0.701637,0.701637 0.3859003,0 0.701637,-0.3157366 0.701637,-0.701637 0,-0.3859002 -0.3157367,-0.7016369 -0.701637,-0.7016369 z m 0,2.1049109 c -0.3859004,0 -0.701637,0.3157367 -0.701637,0.7016374 0,0.3859 0.3157366,0.701637 0.701637,0.701637 0.3859003,0 0.701637,-0.315737 0.701637,-0.701637 0,-0.3859007 -0.3157367,-0.7016374 -0.701637,-0.7016374 z m 0,2.104911 c -0.3859004,0 -0.701637,0.315737 -0.701637,0.701638 0,0.3859 0.3157366,0.701637 0.701637,0.701637 0.3859003,0 0.701637,-0.315737 0.701637,-0.701637 0,-0.385901 -0.3157367,-0.701638 -0.701637,-0.701638 z M 11.51103,7.238504 c 0.3859,0 0.701637,-0.3157366 0.701637,-0.701637 0,-0.3859002 -0.315737,-0.7016369 -0.701637,-0.7016369 -0.3859,0 -0.701637,0.3157367 -0.701637,0.7016369 0,0.3859004 0.315737,0.701637 0.701637,0.701637 z m -2.1049112,2.806548 c -0.3859004,0 -0.701637,0.315737 -0.701637,0.701638 0,0.3859 0.3157366,0.701637 0.701637,0.701637 0.3859003,0 0.7016372,-0.315737 0.7016372,-0.701637 0,-0.385901 -0.3157369,-0.701638 -0.7016372,-0.701638 z m 2.1049112,0 c -0.3859,0 -0.701637,0.315737 -0.701637,0.701638 0,0.3859 0.315737,0.701637 0.701637,0.701637 0.3859,0 0.701637,-0.315737 0.701637,-0.701637 0,-0.385901 -0.315737,-0.701638 -0.701637,-0.701638 z m 0,-2.104911 c -0.3859,0 -0.701637,0.3157367 -0.701637,0.7016374 0,0.3859 0.315737,0.701637 0.701637,0.701637 0.3859,0 0.701637,-0.315737 0.701637,-0.701637 0,-0.3859007 -0.315737,-0.7016374 -0.701637,-0.7016374 z m -2.1049112,0 c -0.3859004,0 -0.701637,0.3157367 -0.701637,0.7016374 0,0.3859 0.3157366,0.701637 0.701637,0.701637 0.3859003,0 0.7016372,-0.315737 0.7016372,-0.701637 0,-0.3859007 -0.3157369,-0.7016374 -0.7016372,-0.7016374 z m 0,-2.1049109 c -0.3859004,0 -0.701637,0.3157367 -0.701637,0.7016369 0,0.3859004 0.3157366,0.701637 0.701637,0.701637 0.3859003,0 0.7016372,-0.3157366 0.7016372,-0.701637 0,-0.3859002 -0.3157369,-0.7016369 -0.7016372,-0.7016369 z"
     id="path4-5"
     style="stroke-width:0.350819" />
</svg>
